<svg version="1.1" viewBox="32.77170418006431 9.18 46.636655948553056 62.99999999999999" xmlns:xlink="http://www.w3.org/1999/xlink" xmlns="http://www.w3.org/2000/svg" style="max-height: 500px" width="46.636655948553056" height="62.99999999999999">
<defs>
<linearGradient gradientTransform="matrix(0.159714,0,0,-0.160427,43.401303,54.079336)" y2="105" x2="0" y1="0" x1="0" gradientUnits="userSpaceOnUse" id="linear0">
<stop style="stop-color:rgb(70.588235%,92.54902%,31.764706%);stop-opacity:1;" offset="0"/>
<stop style="stop-color:rgb(25.882353%,57.647059%,12.941176%);stop-opacity:1;" offset="1"/>
</linearGradient>
<linearGradient gradientTransform="matrix(0.159714,0,0,-0.160427,39.083429,51.18017)" y2="45" x2="0" y1="0" x1="0" gradientUnits="userSpaceOnUse" id="linear1">
<stop style="stop-color:rgb(70.588235%,92.54902%,31.764706%);stop-opacity:1;" offset="0"/>
<stop style="stop-color:rgb(25.882353%,57.647059%,12.941176%);stop-opacity:1;" offset="1"/>
</linearGradient>
<linearGradient gradientTransform="matrix(0.159714,0,0,-0.160427,44.313731,39.889084)" y2="48" x2="0" y1="0" x1="0" gradientUnits="userSpaceOnUse" id="linear2">
<stop style="stop-color:rgb(70.588235%,92.54902%,31.764706%);stop-opacity:1;" offset="0"/>
<stop style="stop-color:rgb(25.882353%,57.647059%,12.941176%);stop-opacity:1;" offset="1"/>
</linearGradient>
<linearGradient gradientTransform="matrix(0.159714,0,0,-0.160427,57.33121,28.889854)" y2="120" x2="0" y1="0" x1="0" gradientUnits="userSpaceOnUse" id="linear3">
<stop style="stop-color:rgb(70.588235%,92.54902%,31.764706%);stop-opacity:1;" offset="0"/>
<stop style="stop-color:rgb(25.882353%,57.647059%,12.941176%);stop-opacity:1;" offset="1"/>
</linearGradient>
<linearGradient gradientTransform="matrix(0.159714,0,0,-0.160427,56.242492,31.087813)" y2="59" x2="0" y1="0" x1="0" gradientUnits="userSpaceOnUse" id="linear4">
<stop style="stop-color:rgb(70.588235%,92.54902%,31.764706%);stop-opacity:1;" offset="0"/>
<stop style="stop-color:rgb(25.882353%,57.647059%,12.941176%);stop-opacity:1;" offset="1"/>
</linearGradient>
</defs>
<g id="surface1">
<path d="M 43.402344 39.320312 C 43.402344 39.320312 43.507812 40.230469 43.863281 41.597656 C 45.488281 41.78125 47 42.191406 48.472656 42.632812 C 50.152344 43.140625 51.78125 43.714844 53.414062 44.234375 C 55.046875 44.75 56.6875 45.222656 58.371094 45.484375 C 60.046875 45.746094 61.78125 45.792969 63.457031 45.335938 C 61.847656 45.984375 60.058594 46.148438 58.3125 46.082031 C 56.5625 46.011719 54.828125 45.722656 53.121094 45.394531 C 51.414062 45.0625 49.726562 44.675781 48.054688 44.375 C 46.894531 44.167969 45.734375 43.996094 44.605469 43.933594 C 46.175781 48.128906 49.675781 53.71875 57.203125 54.066406 C 69.339844 54.621094 72.917969 39.042969 72.917969 39.042969 C 63.871094 47.558594 51.554688 31.679688 43.402344 39.320312" style="stroke:none;fill-rule:nonzero;fill:url(#linear0);"/>
<path d="M 46.070312 44.09375 C 42.695312 43.375 39.246094 45.25 39.085938 47.597656 C 38.929688 49.949219 43.925781 52.226562 45.277344 50.667969 C 46.347656 49.433594 44.007812 49.398438 42.9375 49.203125 C 41.777344 48.992188 40.199219 47.71875 41.425781 46.761719 C 42.65625 45.804688 45.433594 45.226562 46.425781 45.507812 C 47.417969 45.785156 46.070312 44.09375 46.070312 44.09375" style="stroke:none;fill-rule:nonzero;fill:url(#linear1);"/>
<path d="M 44.3125 36.902344 C 44.359375 36.558594 44.527344 36.238281 44.730469 35.953125 C 44.941406 35.671875 45.195312 35.421875 45.464844 35.199219 C 46.011719 34.753906 46.621094 34.410156 47.246094 34.105469 C 48.5 33.507812 49.832031 33.105469 51.171875 32.800781 C 53.863281 32.203125 56.625 32.015625 59.375 32.15625 C 60.75 32.222656 62.117188 32.402344 63.46875 32.652344 C 64.820312 32.90625 66.164062 33.246094 67.464844 33.761719 C 68.113281 34.023438 68.75 34.324219 69.351562 34.703125 C 69.949219 35.082031 70.527344 35.535156 70.964844 36.136719 C 71.183594 36.433594 71.367188 36.769531 71.464844 37.136719 C 71.566406 37.5 71.578125 37.894531 71.484375 38.253906 C 71.300781 38.984375 70.78125 39.519531 70.21875 39.890625 C 70.691406 39.410156 71.070312 38.8125 71.117188 38.191406 C 71.167969 37.570312 70.890625 36.996094 70.460938 36.558594 C 70.03125 36.113281 69.488281 35.769531 68.914062 35.484375 C 68.339844 35.199219 67.730469 34.972656 67.105469 34.78125 C 65.859375 34.394531 64.558594 34.148438 63.253906 33.957031 C 62.597656 33.863281 61.9375 33.785156 61.28125 33.71875 C 60.621094 33.660156 59.964844 33.613281 59.304688 33.582031 C 56.660156 33.464844 54 33.570312 51.378906 33.9375 C 50.070312 34.128906 48.769531 34.382812 47.511719 34.78125 C 46.886719 34.980469 46.269531 35.21875 45.699219 35.542969 C 45.414062 35.699219 45.140625 35.882812 44.898438 36.105469 C 44.65625 36.320312 44.445312 36.585938 44.3125 36.902344" style="stroke:none;fill-rule:nonzero;fill:url(#linear2);"/>
<path d="M 60.082031 9.601562 C 58.019531 11.875 58.296875 16.351562 60.875 19.128906 C 63.410156 21.855469 64.675781 25.632812 60.875 28.890625 C 60.875 28.890625 63.308594 25.050781 60.730469 21.761719 C 58.796875 19.292969 54.519531 14.734375 60.082031 9.601562" style="stroke:none;fill-rule:nonzero;fill:url(#linear3);"/>
<path d="M 57.65625 21.644531 C 59.113281 23.035156 59.25 24.882812 58.28125 26.203125 C 57.242188 27.617188 55.984375 29.316406 57.304688 31.085938 C 57.304688 31.085938 55.390625 29.003906 56.703125 27.15625 C 58.167969 25.105469 58.84375 23.617188 57.65625 21.644531" style="stroke:none;fill-rule:nonzero;fill:url(#linear4);"/>
<path d="M 35.632812 60.898438 C 35.632812 61.375 35.800781 61.765625 36.132812 62.070312 C 36.464844 62.375 36.964844 62.71875 37.628906 63.097656 C 38.117188 63.375 38.5 63.613281 38.785156 63.816406 C 39.070312 64.015625 39.316406 64.273438 39.515625 64.585938 C 39.71875 64.894531 39.820312 65.253906 39.820312 65.660156 C 39.820312 66.398438 39.527344 66.980469 38.9375 67.402344 C 38.351562 67.828125 37.5625 68.039062 36.578125 68.039062 C 35.734375 68.039062 35.054688 67.875 34.535156 67.554688 C 34.019531 67.234375 33.761719 66.796875 33.761719 66.25 C 33.761719 65.890625 33.882812 65.605469 34.125 65.398438 C 34.371094 65.1875 34.675781 65.085938 35.042969 65.085938 C 35.332031 65.085938 35.605469 65.15625 35.863281 65.300781 C 35.496094 65.492188 35.3125 65.867188 35.3125 66.425781 C 35.3125 66.761719 35.433594 67.046875 35.679688 67.277344 C 35.921875 67.511719 36.25 67.628906 36.667969 67.628906 C 37.09375 67.628906 37.429688 67.507812 37.671875 67.269531 C 37.917969 67.03125 38.039062 66.734375 38.039062 66.375 C 38.039062 65.957031 37.886719 65.613281 37.585938 65.34375 C 37.28125 65.078125 36.820312 64.765625 36.203125 64.40625 C 35.714844 64.140625 35.316406 63.898438 35 63.671875 C 34.6875 63.445312 34.421875 63.164062 34.207031 62.832031 C 33.992188 62.496094 33.886719 62.101562 33.886719 61.648438 C 33.886719 60.96875 34.175781 60.417969 34.75 59.992188 C 35.328125 59.570312 36.078125 59.355469 37.003906 59.355469 C 37.800781 59.355469 38.449219 59.511719 38.949219 59.816406 C 39.445312 60.117188 39.695312 60.519531 39.695312 61.023438 C 39.695312 61.34375 39.589844 61.597656 39.375 61.785156 C 39.160156 61.96875 38.871094 62.0625 38.503906 62.0625 C 38.242188 62.0625 37.96875 61.996094 37.683594 61.863281 C 37.835938 61.742188 37.957031 61.59375 38.039062 61.414062 C 38.121094 61.238281 38.164062 61.050781 38.164062 60.863281 C 38.164062 60.5625 38.054688 60.308594 37.84375 60.101562 C 37.628906 59.890625 37.3125 59.789062 36.898438 59.789062 C 36.492188 59.789062 36.183594 59.894531 35.960938 60.109375 C 35.742188 60.324219 35.632812 60.585938 35.632812 60.898438 Z M 42.761719 63.921875 C 42.511719 64.066406 42.214844 64.136719 41.871094 64.136719 C 41.621094 64.136719 41.425781 64.0625 41.28125 63.914062 C 41.136719 63.765625 41.066406 63.550781 41.066406 63.277344 C 41.066406 62.871094 41.265625 62.546875 41.664062 62.300781 C 42.0625 62.058594 42.582031 61.9375 43.222656 61.9375 C 43.984375 61.9375 44.582031 62.101562 45.015625 62.4375 C 45.449219 62.769531 45.664062 63.222656 45.664062 63.796875 L 45.664062 66.894531 C 45.664062 67.226562 45.785156 67.394531 46.019531 67.394531 C 46.246094 67.394531 46.464844 67.304688 46.679688 67.125 L 46.824219 67.304688 C 46.382812 67.792969 45.859375 68.039062 45.253906 68.039062 C 44.898438 68.039062 44.628906 67.949219 44.445312 67.769531 C 44.261719 67.589844 44.152344 67.308594 44.113281 66.929688 L 44.042969 66.929688 C 43.851562 67.273438 43.601562 67.546875 43.285156 67.742188 C 42.972656 67.941406 42.613281 68.039062 42.207031 68.039062 C 41.757812 68.039062 41.394531 67.898438 41.121094 67.617188 C 40.847656 67.335938 40.710938 66.96875 40.710938 66.515625 C 40.710938 66.003906 40.953125 65.597656 41.441406 65.300781 C 41.929688 65.003906 42.585938 64.851562 43.417969 64.851562 C 43.574219 64.851562 43.792969 64.863281 44.078125 64.890625 L 44.078125 63.992188 C 44.078125 63.410156 44.007812 62.988281 43.863281 62.734375 C 43.722656 62.476562 43.492188 62.347656 43.171875 62.347656 C 42.945312 62.347656 42.765625 62.417969 42.636719 62.5625 C 42.503906 62.703125 42.4375 62.890625 42.4375 63.117188 C 42.4375 63.472656 42.546875 63.742188 42.761719 63.921875 Z M 43.027344 67.144531 C 43.730469 67.144531 44.078125 66.503906 44.078125 65.226562 C 43.484375 65.226562 43.039062 65.328125 42.742188 65.523438 C 42.445312 65.71875 42.296875 66 42.296875 66.355469 C 42.296875 66.59375 42.363281 66.785156 42.492188 66.929688 C 42.625 67.070312 42.800781 67.144531 43.027344 67.144531 Z M 53.683594 67.160156 L 53.828125 67.339844 C 53.410156 67.804688 52.894531 68.039062 52.277344 68.039062 C 51.894531 68.039062 51.59375 67.953125 51.375 67.789062 C 51.15625 67.621094 50.988281 67.339844 50.867188 66.945312 L 50.316406 65.371094 C 50.246094 65.167969 50.152344 65.015625 50.039062 64.90625 C 49.925781 64.796875 49.777344 64.722656 49.585938 64.675781 L 49.585938 66.015625 C 49.585938 66.386719 49.613281 66.679688 49.664062 66.894531 C 49.71875 67.109375 49.808594 67.316406 49.941406 67.519531 L 50.085938 67.699219 L 49.941406 67.878906 L 47.359375 67.878906 L 47.25 67.574219 L 47.5 67.519531 C 47.691406 67.472656 47.8125 67.398438 47.875 67.296875 C 47.933594 67.195312 47.964844 66.992188 47.964844 66.695312 L 47.964844 60.234375 C 47.964844 60.066406 47.886719 59.984375 47.734375 59.984375 L 47.179688 59.984375 L 47.109375 59.804688 C 47.335938 59.589844 47.628906 59.421875 47.988281 59.292969 C 48.351562 59.167969 48.710938 59.105469 49.070312 59.105469 C 49.222656 59.105469 49.347656 59.140625 49.441406 59.207031 C 49.539062 59.273438 49.585938 59.363281 49.585938 59.484375 L 49.585938 64.332031 L 50.652344 63.546875 C 50.902344 63.367188 51.074219 63.222656 51.171875 63.117188 C 51.265625 63.007812 51.3125 62.894531 51.3125 62.777344 C 51.3125 62.609375 51.242188 62.46875 51.101562 62.347656 L 50.957031 62.238281 L 51.101562 62.0625 L 53.257812 62.0625 L 53.363281 62.363281 C 53.066406 62.4375 52.734375 62.605469 52.367188 62.867188 L 50.261719 64.40625 C 50.785156 64.464844 51.1875 64.589844 51.472656 64.78125 C 51.757812 64.972656 51.96875 65.246094 52.097656 65.605469 L 52.597656 67.035156 C 52.679688 67.300781 52.847656 67.429688 53.09375 67.429688 C 53.273438 67.429688 53.46875 67.339844 53.683594 67.160156 Z M 58.371094 66.25 C 58.203125 66.773438 57.914062 67.203125 57.507812 67.539062 C 57.097656 67.871094 56.660156 68.039062 56.195312 68.039062 C 55.671875 68.039062 55.285156 67.871094 55.039062 67.539062 C 54.789062 67.203125 54.664062 66.691406 54.664062 66 L 54.664062 63.082031 C 54.664062 62.914062 54.585938 62.832031 54.429688 62.832031 L 53.878906 62.832031 L 53.828125 62.632812 C 54.0625 62.429688 54.359375 62.261719 54.71875 62.132812 C 55.074219 62 55.421875 61.9375 55.769531 61.9375 C 55.921875 61.9375 56.042969 61.972656 56.132812 62.042969 C 56.222656 62.113281 56.265625 62.210938 56.265625 62.328125 L 56.265625 65.910156 C 56.265625 66.3125 56.328125 66.628906 56.445312 66.847656 C 56.5625 67.070312 56.730469 67.179688 56.945312 67.179688 C 57.382812 67.179688 57.738281 66.910156 58.003906 66.363281 C 58.273438 65.820312 58.40625 65.113281 58.40625 64.242188 C 58.40625 63.777344 58.371094 63.417969 58.308594 63.160156 C 58.242188 62.90625 58.125 62.679688 57.960938 62.488281 L 57.800781 62.292969 L 57.941406 62.132812 L 59.992188 61.972656 L 59.992188 66.859375 C 59.992188 67.214844 60.097656 67.394531 60.3125 67.394531 C 60.539062 67.394531 60.757812 67.304688 60.96875 67.125 L 61.113281 67.304688 C 60.699219 67.792969 60.179688 68.039062 59.5625 68.039062 C 59.113281 68.039062 58.800781 67.90625 58.628906 67.644531 C 58.457031 67.382812 58.371094 66.917969 58.371094 66.25 Z M 65.425781 62.132812 L 67.472656 61.972656 L 67.472656 67.878906 C 67.472656 68.820312 67.203125 69.550781 66.664062 70.070312 C 66.125 70.589844 65.371094 70.847656 64.410156 70.847656 C 63.816406 70.847656 63.335938 70.734375 62.96875 70.507812 C 62.597656 70.28125 62.414062 69.984375 62.414062 69.613281 C 62.414062 69.292969 62.511719 69.03125 62.699219 68.835938 C 62.890625 68.636719 63.140625 68.539062 63.449219 68.539062 C 63.671875 68.539062 63.894531 68.585938 64.105469 68.683594 C 63.894531 68.898438 63.785156 69.191406 63.785156 69.558594 C 63.785156 69.824219 63.867188 70.039062 64.027344 70.203125 C 64.1875 70.371094 64.390625 70.453125 64.640625 70.453125 C 65.472656 70.453125 65.890625 69.773438 65.890625 68.414062 L 65.890625 66.140625 C 65.734375 66.59375 65.464844 66.96875 65.078125 67.257812 C 64.691406 67.550781 64.28125 67.699219 63.839844 67.699219 C 63.316406 67.699219 62.933594 67.539062 62.683594 67.214844 C 62.433594 66.894531 62.308594 66.40625 62.308594 65.75 L 62.308594 63.082031 C 62.308594 62.914062 62.230469 62.832031 62.078125 62.832031 L 61.523438 62.832031 L 61.46875 62.632812 C 61.695312 62.429688 61.992188 62.261719 62.359375 62.132812 C 62.730469 62 63.082031 61.9375 63.414062 61.9375 C 63.566406 61.9375 63.6875 61.972656 63.777344 62.042969 C 63.867188 62.113281 63.910156 62.210938 63.910156 62.328125 L 63.910156 65.945312 C 63.910156 66.613281 64.117188 66.945312 64.535156 66.945312 C 64.9375 66.945312 65.265625 66.703125 65.515625 66.210938 C 65.765625 65.722656 65.890625 65.074219 65.890625 64.261719 C 65.890625 63.832031 65.851562 63.480469 65.78125 63.207031 C 65.710938 62.933594 65.597656 62.691406 65.445312 62.488281 L 65.300781 62.292969 Z M 70.949219 63.921875 C 70.699219 64.066406 70.402344 64.136719 70.058594 64.136719 C 69.808594 64.136719 69.613281 64.0625 69.472656 63.914062 C 69.328125 63.765625 69.257812 63.550781 69.257812 63.277344 C 69.257812 62.871094 69.457031 62.546875 69.851562 62.300781 C 70.253906 62.058594 70.773438 61.9375 71.414062 61.9375 C 72.171875 61.9375 72.769531 62.101562 73.203125 62.4375 C 73.636719 62.769531 73.855469 63.222656 73.855469 63.796875 L 73.855469 66.894531 C 73.855469 67.226562 73.972656 67.394531 74.210938 67.394531 C 74.4375 67.394531 74.65625 67.304688 74.871094 67.125 L 75.011719 67.304688 C 74.574219 67.792969 74.050781 68.039062 73.445312 68.039062 C 73.085938 68.039062 72.816406 67.949219 72.632812 67.769531 C 72.449219 67.589844 72.339844 67.308594 72.304688 66.929688 L 72.234375 66.929688 C 72.042969 67.273438 71.789062 67.546875 71.476562 67.742188 C 71.160156 67.941406 70.800781 68.039062 70.398438 68.039062 C 69.945312 68.039062 69.582031 67.898438 69.308594 67.617188 C 69.035156 67.335938 68.898438 66.96875 68.898438 66.515625 C 68.898438 66.003906 69.144531 65.597656 69.632812 65.300781 C 70.117188 65.003906 70.777344 64.851562 71.609375 64.851562 C 71.761719 64.851562 71.984375 64.863281 72.269531 64.890625 L 72.269531 63.992188 C 72.269531 63.410156 72.199219 62.988281 72.054688 62.734375 C 71.910156 62.476562 71.679688 62.347656 71.359375 62.347656 C 71.132812 62.347656 70.957031 62.417969 70.824219 62.5625 C 70.695312 62.703125 70.628906 62.890625 70.628906 63.117188 C 70.628906 63.472656 70.734375 63.742188 70.949219 63.921875 Z M 71.214844 67.144531 C 71.917969 67.144531 72.269531 66.503906 72.269531 65.226562 C 71.675781 65.226562 71.230469 65.328125 70.933594 65.523438 C 70.636719 65.71875 70.488281 66 70.488281 66.355469 C 70.488281 66.59375 70.550781 66.785156 70.683594 66.929688 C 70.8125 67.070312 70.992188 67.144531 71.214844 67.144531 Z M 77.507812 66.859375 C 77.507812 67.214844 77.621094 67.394531 77.847656 67.394531 C 78.070312 67.394531 78.292969 67.304688 78.503906 67.125 L 78.648438 67.304688 C 78.230469 67.792969 77.714844 68.039062 77.097656 68.039062 C 76.679688 68.039062 76.378906 67.941406 76.1875 67.742188 C 76 67.546875 75.902344 67.234375 75.902344 66.804688 L 75.902344 60.234375 C 75.902344 60.066406 75.824219 59.984375 75.671875 59.984375 L 75.101562 59.984375 L 75.046875 59.804688 C 75.273438 59.589844 75.566406 59.421875 75.929688 59.292969 C 76.292969 59.167969 76.652344 59.105469 77.007812 59.105469 C 77.160156 59.105469 77.285156 59.140625 77.375 59.207031 C 77.460938 59.273438 77.507812 59.363281 77.507812 59.484375 Z M 77.507812 66.859375" style="stroke:none;fill-rule:nonzero;fill:rgb(18.82353%,62.7451%,1.568628%);fill-opacity:1;"/>
</g>
</svg>